<?xml version="1.0" encoding="UTF-8"?>
<svg width="161px" height="42px" viewBox="0 0 161 42" version="1.1" xmlns="http://www.w3.org/2000/svg" xmlns:xlink="http://www.w3.org/1999/xlink">
    <!-- Generator: Sketch 52.3 (67297) - http://www.bohemiancoding.com/sketch -->
    <title>Group</title>
    <desc>Created with Sketch.</desc>
    <g id="Page-1" stroke="none" stroke-width="1" fill="none" fill-rule="evenodd">
        <g id="Formal" transform="translate(-72.000000, -66.000000)">
            <g id="Group" transform="translate(72.000000, 66.000000)">
                <g id="OAT---LOGO" fill-rule="nonzero">
                    <polygon id="Shape" fill="#15173F" points="120.924696 0.725046367 125.232513 0.725046367 125.232513 27.5781273 110.327996 40.8135191"></polygon>
                    <polygon id="Shape" fill="#771025" points="111.440406 41.4506811 127.696656 29.8806988 154.137438 35.6766755 153.206736 39.8511849"></polygon>
                    <path d="M9.75020453,34.6352453 L11.0797779,34.6352453 L13.6502863,41.3671909 L12.320713,41.3671909 L11.7755879,39.9874057 L9.00564345,39.9874057 L8.45165456,41.3759794 L7.09105784,41.3759794 L9.75020453,34.6352453 Z M10.4149912,36.4192987 L9.5020175,38.7306587 L11.3191011,38.7306587 L10.4149912,36.4192987 Z" id="Shape" fill="#15173F"></path>
                    <polygon id="Shape" fill="#15173F" points="17.2046791 34.6352453 18.4899333 34.6352453 18.4899333 41.3671909 17.2046791 41.3671909"></polygon>
                    <path d="M22.6736574,34.6352453 L24.0475499,34.6352453 C24.5884787,34.6061394 25.1303008,34.6731052 25.6474698,34.8329852 C25.9679011,34.9652002 26.2367829,35.196352 26.4141904,35.4921182 C26.6147055,35.8234266 26.7161467,36.2044056 26.7066966,36.5906733 C26.7208791,36.9845714 26.6075024,37.3726256 26.3831671,37.6980169 C26.1397571,38.0175423 25.8020938,38.2540465 25.4170104,38.3747268 L27.034658,41.3671909 L25.6120145,41.3671909 L24.0874371,38.5153419 L23.9677755,38.5153419 L23.9677755,41.3671909 L22.6736574,41.3671909 L22.6736574,34.6352453 Z M23.9677755,37.2717775 L24.3755113,37.2717775 C24.667391,37.2958659 24.960313,37.2396045 25.2220063,37.1091913 C25.3870031,36.9835599 25.475641,36.7829189 25.4568976,36.5774907 C25.4601399,36.4411946 25.4198052,36.3073761 25.3416679,36.1951935 C25.2646479,36.086992 25.15654,36.0043038 25.0314342,35.9579056 C24.8001593,35.8982276 24.5609423,35.8745094 24.3223284,35.8875981 L23.9677755,35.8875981 L23.9677755,37.2717775 Z" id="Shape" fill="#15173F"></path>
                    <polygon id="Shape" fill="#15173F" points="34.3871986 34.6352453 38.1365954 34.6352453 38.1365954 35.8963865 36.9000922 35.8963865 36.9000922 41.3671909 35.5705189 41.3671909 35.5705189 35.8963865 34.3871986 35.8963865"></polygon>
                    <path d="M41.7574668,34.6352453 L43.1269274,34.6352453 C43.6693078,34.6062735 44.2125604,34.6732306 44.7312792,34.8329852 C45.0508792,34.9665282 45.3193842,35.1973561 45.4979998,35.4921182 C45.698515,35.8234266 45.7999561,36.2044056 45.790506,36.5906733 C45.802841,36.9843426 45.689627,37.3718399 45.4669765,37.6980169 C45.2235665,38.0175423 44.8859032,38.2540465 44.5008198,38.3747268 L46.0918759,41.3671909 L44.6958239,41.3671909 L43.1712465,38.5153419 L43.0515849,38.5153419 L43.0515849,41.3671909 L41.7574668,41.3671909 L41.7574668,34.6352453 Z M43.0515849,37.2717775 L43.4548888,37.2717775 C43.7530444,37.297353 44.0524579,37.239502 44.3191115,37.1047971 C44.4824476,36.978198 44.5693434,36.7777177 44.5495709,36.5730965 C44.5550651,36.43651 44.5145217,36.3019995 44.4343412,36.1907993 C44.3601825,36.0817204 44.2531518,35.9986696 44.1285393,35.9535114 C43.8972143,35.8941118 43.658041,35.8703978 43.4194335,35.8832039 L43.0648806,35.8832039 L43.0515849,37.2717775 Z" id="Shape" fill="#15173F"></path>
                    <path d="M51.8533604,34.6352453 L53.1829338,34.6352453 L55.7977614,41.3671909 L54.468188,41.3671909 L53.9230629,39.9874057 L51.1486866,39.9874057 L50.5991296,41.3759794 L49.2695562,41.3759794 L51.8533604,34.6352453 Z M52.5181471,36.4192987 L51.6051734,38.7306587 L53.422257,38.7306587 L52.5181471,36.4192987 Z" id="Shape" fill="#15173F"></path>
                    <polygon id="Shape" fill="#15173F" points="59.4452242 34.6352453 60.6861593 34.6352453 63.5890611 39.0646194 63.5890611 34.6352453 64.8831792 34.6352453 64.8831792 41.3671909 63.6422441 41.3671909 60.7393423 36.9729705 60.7393423 41.3671909 59.4452242 41.3671909"></polygon>
                    <path d="M72.6434556,35.5492431 L71.6861628,36.3885392 C71.4789561,36.0051856 71.0975315,35.7448793 70.6623913,35.6898582 C70.5115415,35.6842563 70.3636864,35.7326023 70.2457917,35.826079 C70.1468228,35.8966001 70.0862917,36.0085224 70.081811,36.1292802 C70.0837156,36.2458396 70.1242026,36.358548 70.1970407,36.4500583 C70.4910938,36.7655968 70.8080867,37.0593324 71.1454697,37.3289024 C71.6374118,37.7375649 71.9387818,37.9968239 72.0318519,38.1022852 C72.2608593,38.319134 72.4485282,38.5751703 72.5858408,38.8580911 C72.6974416,39.1038174 72.753413,39.3707951 72.7498215,39.6402623 C72.7655329,40.1581415 72.5556151,40.6576597 72.173673,41.0112591 C71.7628904,41.3813292 71.2213284,41.5755811 70.6668233,41.5517482 C70.2191927,41.5623549 69.7788222,41.4382614 69.4037286,41.1958163 C69.0022607,40.9149106 68.6839627,40.5325599 68.4818911,40.0884728 L69.581005,39.4249455 C69.9089664,40.0225595 70.281247,40.3037896 70.7067105,40.3037896 C70.9118838,40.3098965 71.1121765,40.2410939 71.2695632,40.1104439 C71.4080921,40.0054314 71.491199,39.8438625 71.4955906,39.6710218 C71.4855278,39.5102768 71.425102,39.3566567 71.3227461,39.2315998 C71.0955469,38.9745553 70.8431672,38.7405135 70.5693212,38.5329188 C70.0310055,38.1346968 69.5494735,37.6661287 69.1378139,37.1399509 C68.9352708,36.8551949 68.8226596,36.5171756 68.8142844,36.1688282 C68.8087537,35.7094297 69.0043757,35.2702181 69.3505456,34.9648118 C69.7099042,34.6307375 70.187685,34.4507248 70.680119,34.4638707 C71.0176223,34.4647133 71.3501624,34.5445067 71.6507075,34.6967643 C72.0322789,34.9171475 72.3689699,35.2062661 72.6434556,35.5492431 Z" id="Shape" fill="#15173F"></path>
                    <path d="M76.6366076,34.6352453 L78.0016362,34.6352453 C78.5443306,34.6063605 79.0878274,34.6748362 79.605988,34.8373794 C79.9287031,34.9696107 80.2004196,35.2005298 80.3815725,35.4965125 C80.5788543,35.8271848 80.6772277,36.2066638 80.6652148,36.5906733 C80.6801321,37.0111145 80.5486797,37.4238404 80.2929343,37.759536 C80.034612,38.0775422 79.6805749,38.3054014 79.2824585,38.4098806 C78.8347421,38.4983566 78.3780064,38.5337586 77.9218618,38.5153419 L77.9218618,41.3671909 L76.6277437,41.3671909 L76.6366076,34.6352453 Z M77.9307256,37.2717775 L78.3428934,37.2717775 C78.5697206,37.2816932 78.7967705,37.2579965 79.0165439,37.20147 C79.1378643,37.1591882 79.2420648,37.079004 79.3134819,36.9729705 C79.3882069,36.8594207 79.4268074,36.7262334 79.4242797,36.5906733 C79.4386144,36.3584309 79.320508,36.1378039 79.1184778,36.0194247 C78.858205,35.9110328 78.5755876,35.865837 78.2941423,35.8875981 L77.9307256,35.8875981 L77.9307256,37.2717775 Z" id="Shape" fill="#15173F"></path>
                    <path d="M87.7917279,34.4638707 C88.7267274,34.4545868 89.6237612,34.830078 90.2691663,35.5009067 C91.6434967,36.8944228 91.6434967,39.121196 90.2691663,40.5147122 C89.6002521,41.1740356 88.6939427,41.5419179 87.7507471,41.5369699 C86.8075515,41.5320219 85.9052191,41.1546515 85.243379,40.4883468 C84.4684049,39.7074038 84.1015666,38.6148228 84.2498183,37.529153 C84.39807,36.4434833 85.044721,35.4869536 86.0012358,34.9384465 C86.5436352,34.6222347 87.1625405,34.4581918 87.7917279,34.4638707 Z M87.7917279,35.7206177 C87.1964929,35.7074178 86.6228134,35.9416299 86.2095356,36.3665681 C85.7653893,36.8038347 85.5218418,37.4027593 85.5358852,38.0231892 C85.5112459,38.7022054 85.8099912,39.3532045 86.342493,39.7808774 C86.7481792,40.1142835 87.2604157,40.2934437 87.787296,40.2862127 C88.3791534,40.2948489 88.9472202,40.0555136 89.3517607,39.6270796 C89.7818108,39.1951419 90.0155062,38.6079366 89.9988197,38.0012181 C90.0117709,37.3943138 89.7768216,36.8079739 89.3473287,36.3753565 C88.9383204,35.9485477 88.3677172,35.7110918 87.7740003,35.7206177 L87.7917279,35.7206177 Z" id="Shape" fill="#15173F"></path>
                    <path d="M95.2594982,34.6352453 L96.615663,34.6352453 C97.1565918,34.6061394 97.698414,34.6731052 98.2155829,34.8329852 C98.5360142,34.9652002 98.804896,35.196352 98.9823036,35.4921182 C99.1828187,35.8234266 99.2842598,36.2044056 99.2748097,36.5906733 C99.2884493,36.9838638 99.1767978,37.3713204 98.9557121,37.6980169 C98.7105207,38.0176487 98.3714315,38.2540671 97.9851236,38.3747268 L99.5939073,41.3671909 L98.1801277,41.3671909 L96.6555502,38.5153419 L96.5358886,38.5153419 L96.5358886,41.3671909 L95.2462025,41.3671909 L95.2594982,34.6352453 Z M96.5491844,37.2717775 L96.9569202,37.2717775 C97.2487999,37.2958659 97.5417219,37.2396045 97.8034152,37.1091913 C97.968412,36.9835599 98.0570499,36.7829189 98.0383065,36.5774907 C98.0415488,36.4411946 98.001214,36.3073761 97.9230768,36.1951935 C97.8460567,36.086992 97.7379489,36.0043038 97.612843,35.9579056 C97.3815682,35.8982276 97.1423512,35.8745094 96.9037372,35.8875981 L96.5491844,35.8875981 L96.5491844,37.2717775 Z" id="Shape" fill="#15173F"></path>
                    <polygon id="Shape" fill="#15173F" points="102.629766 34.6352453 106.365868 34.6352453 106.365868 35.8963865 105.129364 35.8963865 105.129364 41.3671909 103.799791 41.3671909 103.799791 35.8963865 102.594311 35.8963865"></polygon>
                    <path d="M16.3980712,0.439422041 C20.5959714,0.39669491 24.6238327,2.08164692 27.5221682,5.09290145 C30.5846775,8.07618102 32.2726723,12.1784254 32.1889707,16.4343843 C32.2730723,20.6421862 30.6078816,24.6990462 27.584215,27.652829 C24.6656836,30.6515617 20.6226345,32.3145452 16.4202308,32.2447894 C11.8346801,32.2447894 8.02619109,30.6731232 4.99476386,27.5297909 C2.02628878,24.550946 0.386718951,20.5161637 0.443191115,16.328923 C0.419108317,13.5292556 1.15052133,10.7741299 2.56164464,8.34901877 C5.42046721,3.45399109 10.6930757,0.439903103 16.3980712,0.439422041 Z M16.3360245,6.08160104 C13.6522704,6.02135851 11.0664226,7.08165996 9.20951137,9.00375762 C7.28310732,10.951862 6.3199053,13.4287376 6.3199053,16.4343843 C6.3199053,19.7827803 7.53277165,22.4310304 9.95850435,24.3791348 C11.7771019,25.8808341 14.0758489,26.6909385 16.4423904,26.6641294 C19.1065159,26.7036146 21.6637435,25.6265543 23.4846972,23.6980307 C25.4058506,21.7504104 26.4484726,19.1137007 26.3743032,16.3904421 C26.4321598,13.6598715 25.3758553,11.0217626 23.44481,9.07406514 C21.5995858,7.12446485 19.0100331,6.03777249 16.3138649,6.08160104 L16.3360245,6.08160104 Z" id="Shape" fill="#771025"></path>
                    <polygon id="Shape" fill="#771025" points="38.7216077 1.19962217 44.3855901 1.19962217 51.476648 22.3226397 58.607593 1.19962217 64.2627116 1.19962217 69.3860009 31.480195 63.7707695 31.480195 60.4955872 12.3565478 54.0072692 31.480195 48.88398 31.480195 42.4532769 12.3565478 39.1027521 31.480195 33.4343377 31.480195"></polygon>
                    <polygon id="Shape" fill="#771025" points="72.1337858 1.19962217 77.7091301 1.19962217 90.778836 21.1274117 90.778836 1.19962217 96.5890716 1.19962217 96.5890716 31.480195 91.0004316 31.480195 77.9484533 11.6183188 77.9484533 31.480195 72.1337858 31.480195"></polygon>
                    <polygon id="Shape" fill="#771025" points="102.040722 1.19962217 107.793579 1.19962217 107.793579 31.480195 102.040722 31.480195"></polygon>
                </g>
                <path d="M159,40 C157.873563,40 157,39.0971429 157,38.0114286 L157,38 C157,36.9142857 157.885057,36 159,36 C160.126437,36 161,36.9028571 161,37.9885714 L161,38 C161,39.0857143 160.114943,40 159,40 Z M159,39.7828571 C160,39.7828571 160.770115,38.9714286 160.770115,38 L160.770115,37.9885714 C160.770115,37.0171429 160.011494,36.2171429 159,36.2171429 C158,36.2171429 157.229885,37.0285714 157.229885,38 L157.229885,38.0114286 C157.229885,38.9828571 157.988506,39.7828571 159,39.7828571 Z M158.126437,39.0171429 L158.126437,36.9142857 L159.137931,36.9142857 C159.655172,36.9142857 160.022989,37.1314286 160.022989,37.6228571 C160.022989,37.9542857 159.850575,38.1828571 159.586207,38.2857143 L160.091954,39.0171429 L159.402299,39.0171429 L158.977011,38.3885714 L158.724138,38.3885714 L158.724138,39.0171429 L158.126437,39.0171429 Z M158.724138,37.92 L159.103448,37.92 C159.310345,37.92 159.425287,37.8171429 159.425287,37.6685714 C159.425287,37.5085714 159.310345,37.4171429 159.103448,37.4171429 L158.724138,37.4171429 L158.724138,37.92 Z" id="®" fill="#771025"></path>
            </g>
        </g>
    </g>
</svg>